<?xml version="1.0" standalone="no"?>
<!DOCTYPE svg PUBLIC "-//W3C//DTD SVG 20010904//EN"
 "http://www.w3.org/TR/2001/REC-SVG-20010904/DTD/svg10.dtd">
<svg version="1.0" xmlns="http://www.w3.org/2000/svg"
 width="960.000000pt" height="960.000000pt" viewBox="0 0 960.000000 960.000000"
 preserveAspectRatio="xMidYMid meet">
<metadata>
Created by potrace 1.14, written by Peter Selinger 2001-2017
</metadata>
<g transform="translate(0.000000,960.000000) scale(0.100000,-0.100000)"
fill="#000000" stroke="none">
<path d="M4538 9595 c-1 -1 -52 -6 -112 -10 -60 -4 -117 -8 -127 -10 -10 -2
-44 -6 -76 -10 -72 -7 -253 -34 -273 -40 -8 -2 -28 -6 -44 -9 -27 -5 -97 -19
-156 -32 -14 -3 -36 -7 -49 -10 -14 -3 -58 -14 -100 -26 -41 -11 -80 -21 -86
-23 -95 -19 -451 -143 -590 -205 -22 -10 -67 -30 -100 -45 -164 -73 -359 -176
-535 -283 -101 -61 -194 -124 -198 -134 -2 -4 -8 -8 -13 -8 -12 0 -125 -82
-254 -184 -91 -72 -103 -81 -210 -176 -132 -116 -331 -318 -440 -445 -33 -38
-68 -79 -78 -90 -41 -44 -248 -326 -309 -420 -262 -402 -458 -823 -592 -1275
-34 -113 -83 -310 -101 -407 -8 -43 -17 -87 -19 -98 -2 -11 -7 -40 -11 -65 -4
-25 -9 -52 -10 -60 -3 -17 -17 -124 -30 -235 -20 -166 -27 -684 -12 -857 13
-139 17 -183 22 -220 3 -21 7 -57 10 -80 3 -24 11 -70 16 -103 6 -33 12 -69
14 -80 5 -46 39 -199 72 -330 19 -77 36 -147 38 -155 12 -51 125 -377 154
-445 144 -337 239 -525 363 -724 32 -51 58 -97 58 -101 0 -5 3 -10 8 -12 4 -1
25 -30 46 -63 90 -138 265 -362 421 -540 84 -96 314 -320 419 -410 33 -27 65
-55 71 -62 78 -76 470 -352 640 -450 126 -73 148 -85 315 -168 267 -133 551
-243 815 -316 60 -16 90 -24 175 -44 99 -24 232 -52 290 -61 19 -3 42 -7 50
-9 20 -6 139 -22 215 -30 33 -3 69 -8 80 -10 98 -19 673 -27 860 -11 55 5 114
9 130 11 17 1 53 5 80 9 28 4 68 9 90 12 36 4 98 14 180 29 17 3 45 8 64 11
18 3 41 7 50 9 9 2 48 11 86 19 162 36 320 81 490 138 301 102 612 242 870
393 92 54 370 236 440 288 290 217 569 475 780 722 33 38 65 75 70 81 6 6 21
25 35 43 14 18 30 38 36 44 25 28 185 249 240 332 54 81 128 204 198 325 41
73 216 432 216 446 0 2 9 23 19 47 67 149 189 519 217 660 2 10 6 27 9 37 16
49 64 294 80 405 4 22 8 51 10 65 2 14 7 50 10 80 3 30 8 69 10 85 14 113 20
265 19 495 0 269 -7 402 -29 580 -13 101 -16 128 -26 185 -6 33 -12 71 -14 85
-7 52 -57 279 -81 370 -61 226 -155 502 -230 668 -13 29 -24 54 -24 57 0 6
-148 306 -178 360 -293 527 -641 951 -1117 1364 -198 171 -477 365 -755 524
-93 53 -356 180 -490 237 -284 120 -712 249 -955 286 -11 2 -33 6 -50 9 -104
20 -136 25 -190 31 -33 4 -67 8 -75 9 -8 2 -51 6 -95 10 -44 4 -93 9 -110 12
-35 5 -631 13 -637 8z"/>
</g>
</svg>
